<svg xmlns="http://www.w3.org/2000/svg" viewBox="0 0 500 500">
<rect width="500" height="500" fill="white"/>
<path d="C 1.0 0.0, 0.0 1.0, 438.3727 236.7391 M 0.0 0.0 C 0.0 -91.247, -73.97 -165.217, -165.217 -165.217 C -256.464 -165.217, -330.435 -91.247, -330.435 0.0 C -330.435 91.247, -256.464 165.217, -165.217 165.217 C -73.97 165.217, 0.0 91.247, 0.0 0.0 C 1.0 0.0, 0.0 1.0, 438.3727 236.7391 M 0.0 0.0 C 0.0 -91.247, -73.97 -165.217, -165.217 -165.217 C -256.464 -165.217, -330.435 -91.247, -330.435 0.0 C -330.435 91.247, -256.464 165.217, -165.217 165.217 C -73.97 165.217, 0.0 91.247, 0.0 0.0 " stroke="red" stroke-width="1" fill="none"/>
</svg>