<svg width="500" height="500" viewBox="0 0 500 500" xmlns="http://www.w3.org/2000/svg">
  <defs>
    <clipPath id="clipRect">
      <rect x="0" y="0" width="500" height="500"/>
    </clipPath>
  </defs>
  <g clip-path="url(#clipRect)">
    <g transform="translate(438.3727, 236.7391)">
      <path d="M 0 0 C 0 -91.247 -73.97 -165.217 -165.217 -165.217 C -256.464 -165.217 -330.435 -91.247 -330.435 0 C -330.435 91.247 -256.464 165.217 -165.217 165.217 C -73.97 165.217 0 91.247 0 0 Z" fill="#FFFFFF"/>
    </g>
    <g transform="translate(438.3727, 236.7391)">
      <path d="M 0 0 C 0 -91.247 -73.97 -165.217 -165.217 -165.217 C -256.464 -165.217 -330.435 -91.247 -330.435 0 C -330.435 91.247 -256.464 165.217 -165.217 165.217 C -73.97 165.217 0 91.247 0 0" stroke="#808080" stroke-width="1" fill="none"/>
    </g>
  </g>
</svg>